<?xml version="1.0" standalone="no"?>
<!DOCTYPE svg PUBLIC "-//W3C//DTD SVG 20010904//EN"
 "http://www.w3.org/TR/2001/REC-SVG-20010904/DTD/svg10.dtd">
<svg version="1.0" xmlns="http://www.w3.org/2000/svg"
 width="752.000000pt" height="752.000000pt" viewBox="0 0 752.000000 752.000000"
 preserveAspectRatio="xMidYMid meet">

<g transform="translate(0.000000,752.000000) scale(0.100000,-0.100000)"
fill="#000000" stroke="none">
<path d="M3590 6027 c-101 -31 -162 -68 -246 -151 -125 -124 -181 -269 -171
-446 9 -158 63 -278 176 -390 228 -224 594 -224 822 0 113 112 167 232 176
390 10 179 -46 321 -176 451 -119 119 -244 169 -416 168 -63 0 -112 -7 -165
-22z m305 -144 c111 -34 214 -127 268 -241 30 -63 32 -73 32 -182 0 -109 -2
-118 -32 -181 -80 -163 -229 -259 -403 -259 -174 0 -323 96 -403 259 -30 63
-32 72 -32 181 0 108 2 119 32 182 99 209 319 308 538 241z"/>
<path d="M3695 5750 c-118 -30 -216 -138 -227 -250 l-3 -35 73 -3 c52 -2 72 1
72 9 0 7 9 31 20 54 20 41 79 85 114 85 13 0 16 13 16 75 0 82 0 82 -65 65z"/>
<path d="M2630 5408 c-147 -103 -287 -230 -395 -360 -77 -91 -155 -200 -155
-216 0 -12 105 -76 116 -71 5 2 42 49 83 104 95 128 248 281 376 376 55 41
102 78 104 83 6 12 -59 116 -73 116 -6 -1 -31 -15 -56 -32z"/>
<path d="M4790 5386 c-18 -30 -34 -56 -34 -59 -1 -2 46 -39 104 -82 129 -95
302 -269 395 -398 l69 -96 36 22 c86 52 86 52 71 80 -53 100 -245 317 -380
430 -94 79 -203 157 -219 157 -5 0 -24 -24 -42 -54z"/>
<path d="M2745 5124 c-111 -82 -281 -253 -357 -361 -32 -44 -58 -84 -58 -89 0
-5 27 -26 59 -46 l59 -37 28 42 c84 129 235 284 375 385 l77 55 -36 59 c-21
32 -41 58 -47 58 -5 0 -50 -30 -100 -66z"/>
<path d="M4628 5131 l-37 -59 42 -28 c146 -96 315 -267 427 -432 l15 -22 57
37 c32 21 58 42 58 47 0 25 -129 185 -235 291 -104 104 -256 225 -282 225 -4
0 -25 -27 -45 -59z"/>
<path d="M1918 4335 c-205 -52 -381 -227 -433 -430 -19 -76 -19 -214 0 -290
53 -208 231 -381 443 -431 137 -33 307 -5 438 71 77 45 174 149 217 235 116
231 75 500 -103 681 -72 73 -131 111 -229 147 -84 31 -246 39 -333 17z m323
-173 c162 -78 259 -228 259 -402 0 -174 -96 -323 -259 -403 -63 -30 -72 -32
-181 -32 -108 0 -119 2 -182 32 -165 78 -260 224 -260 403 0 135 44 234 145
327 91 84 176 114 312 110 89 -3 107 -6 166 -35z"/>
<path d="M1765 3719 c11 -65 32 -107 81 -159 47 -50 115 -86 174 -92 l35 -3 3
73 c2 52 -1 72 -9 72 -7 0 -31 9 -54 20 -41 20 -85 79 -85 114 0 13 -13 16
-76 16 l-76 0 7 -41z"/>
<path d="M5345 4340 c-173 -35 -329 -154 -409 -314 -115 -226 -73 -497 104
-677 112 -113 232 -167 390 -176 180 -10 322 46 450 176 117 119 170 246 170
411 0 165 -53 292 -170 411 -84 85 -176 139 -282 164 -67 16 -187 18 -253 5z
m297 -177 c164 -77 260 -226 260 -403 0 -177 -96 -325 -260 -403 -63 -30 -74
-32 -182 -32 -109 0 -118 2 -181 32 -162 80 -259 229 -259 402 0 192 115 353
301 422 43 15 74 19 154 16 88 -2 108 -6 167 -34z"/>
<path d="M5465 4052 c-11 -11 -5 -142 7 -142 6 0 30 -9 53 -20 41 -20 85 -79
85 -114 0 -13 13 -16 76 -16 l76 0 -7 43 c-21 124 -118 223 -240 246 -24 5
-47 6 -50 3z"/>
<path d="M2685 3311 c-129 -33 -205 -156 -174 -283 11 -48 24 -65 131 -174 65
-66 118 -124 118 -127 0 -4 -102 -7 -226 -7 l-225 0 -227 162 c-274 196 -295
208 -378 208 -131 0 -224 -86 -232 -215 -7 -102 6 -120 292 -423 341 -361 324
-352 732 -407 295 -40 324 -46 372 -82 43 -33 57 -54 108 -179 42 -102 44
-110 44 -210 l0 -104 75 0 75 0 0 70 0 70 185 0 185 0 0 -70 0 -70 76 0 75 0
-4 493 c-3 430 -6 500 -21 552 -39 132 -119 259 -215 339 -66 56 -572 421
-606 439 -38 18 -120 28 -160 18z m116 -164 c133 -90 560 -408 590 -439 52
-54 93 -122 121 -198 22 -62 23 -80 26 -407 l3 -343 -199 0 -199 0 -38 98
c-61 156 -126 232 -231 272 -31 11 -173 36 -341 60 -389 54 -345 30 -658 360
-135 143 -250 271 -255 285 -24 64 48 130 114 105 15 -5 138 -89 272 -185
l245 -175 330 0 331 0 67 -65 67 -65 47 48 c26 26 47 52 47 57 0 5 -110 120
-245 255 -270 271 -272 274 -216 331 36 36 75 38 122 6z"/>
<path d="M4730 3311 c-19 -4 -46 -13 -60 -21 -31 -16 -585 -421 -621 -453 -50
-45 -118 -137 -147 -199 -65 -136 -65 -135 -69 -675 l-4 -493 75 0 76 0 0 70
0 70 185 0 185 0 0 -70 0 -70 75 0 75 0 0 103 c0 95 3 110 36 193 63 155 94
199 163 226 14 5 159 29 321 52 311 44 357 57 454 124 67 46 537 551 559 601
28 64 21 153 -19 217 -59 96 -201 134 -305 81 -24 -12 -146 -95 -271 -185
l-227 -162 -225 0 c-124 0 -226 3 -226 8 0 4 48 55 106 112 126 125 148 162
148 245 0 148 -137 257 -284 226z m111 -170 c56 -57 54 -60 -216 -331 -135
-135 -245 -250 -245 -255 0 -5 21 -31 47 -57 l47 -48 67 65 67 65 331 0 330 0
245 175 c134 96 257 180 272 185 66 25 138 -41 114 -105 -5 -14 -119 -141
-253 -283 -249 -263 -289 -297 -382 -320 -22 -6 -158 -27 -303 -47 -285 -38
-345 -55 -410 -111 -60 -51 -94 -105 -137 -216 l-38 -98 -199 0 -199 0 3 343
c3 327 4 345 26 407 27 76 69 144 120 197 30 31 458 349 591 440 47 32 86 30
122 -6z"/>
</g>
</svg>
